<svg id="achterkant_opening" data-name="achterkant opening" xmlns="http://www.w3.org/2000/svg" viewBox="0 0 822 696"><defs><style>.cls-1,.cls-2{fill:#fff;stroke:#000;stroke-miterlimit:10;}.cls-2{stroke-width:0.5px;stroke-dasharray:8 6;}</style></defs><path class="cls-1" d="M656.13,266.79A113.25,113.25,0,0,0,664,289a364.47,364.47,0,0,1,21,51s8,33,5,62-9,35-12,35-29,8-29,8-57.78,18.79-95.5,33.5c0,0-20,7.73-30,13l1-58.1c5-10.1,29-17.9,29-17.9l2.22-90.33,0-2.18s17.1-55.49,99.91-58Z"/><path class="cls-2" d="M527.5,489l1-52.5c5.14-9.86,30-17,30-17l2.61-94.1.15-2.17s16.24-50.73,95.58-53.36"/></svg>