<?xml version="1.0" encoding="utf-8"?>
<!-- Generator: Adobe Illustrator 25.0.0, SVG Export Plug-In . SVG Version: 6.00 Build 0)  -->
<svg version="1.1" xmlns="http://www.w3.org/2000/svg" xmlns:xlink="http://www.w3.org/1999/xlink" x="0px" y="0px"
	 viewBox="0 0 822 696" style="enable-background:new 0 0 822 696;" xml:space="preserve">
<style type="text/css">
	.st0{display:none;}
	.st1{display:inline;fill:none;stroke:#000000;stroke-miterlimit:10;}
	.st2{display:inline;fill:none;stroke:#000000;stroke-width:0.5;stroke-miterlimit:10;}
	.st3{display:inline;}
	.st4{fill:none;stroke:#000000;stroke-miterlimit:10;}
	.st5{display:inline;fill:none;stroke:#000000;stroke-width:0.7;stroke-miterlimit:10;}
	.st6{fill:none;stroke:#000000;stroke-width:0.7;stroke-miterlimit:10;}
	.st7{fill:none;stroke:#000000;stroke-width:0.5;stroke-miterlimit:10;}
	.st8{fill:none;stroke:#000000;stroke-width:0.5;stroke-miterlimit:10;stroke-dasharray:8.1077,6.0808;}
	.st9{fill:none;stroke:#000000;stroke-width:0.5;stroke-miterlimit:10;stroke-dasharray:8.0238,6.0179;}
	.st10{display:inline;fill:none;stroke:#000000;stroke-width:0.5;stroke-miterlimit:10;stroke-dasharray:8,6;}
	.st11{display:inline;fill:#FFFFFF;stroke:#000000;stroke-miterlimit:10;}
	.st12{display:inline;fill:#FFFFFF;}
	.st13{fill:none;stroke:#000000;stroke-width:0.5;stroke-miterlimit:10;stroke-dasharray:7.907,5.9302;}
	.st14{fill:none;stroke:#000000;stroke-width:0.5;stroke-miterlimit:10;stroke-dasharray:7.5294,5.6471;}
	.st15{fill:none;stroke:#000000;stroke-width:0.5;stroke-miterlimit:10;stroke-dasharray:7.8251,5.8688;}
</style>
<g id="schoen" class="st0">
	<path class="st1" d="M561.4,475c37.4-14,87.6-30,87.6-30s26-8,29-8s9-6,12-35s-5-62-5-62s-7-23-21-51c-11.1-22.1-15.3-60.5-16-85.5
		"/>
	<path class="st1" d="M526.7,490c5.6-3,12-6,19.3-9c4.7-1.9,10-3.9,15.4-6"/>
	<path class="st1" d="M648,203.5c-0.2-6.6-0.2-12.3,0-16.5c1-20,3-47,3-47l6.9-67H358v90c0,0-4,58-10,101s-3,42-27,112s-54,98-54,98
		s-15.5,18.5-43,34c0,0-6.5,4.5-51,22c-42.1,16.6-48,17-68,22s-22.5,12.5-22.5,12.5S63,594,115,606s71,11,108,14s59.5,2.5,59.5,2.5
		S352,628,385,604s66-58,89-75c18.5-13.6,29.8-26.6,52.7-39"/>
</g>
<g id="Achterkant_hoog" class="st0">
	<path class="st1" d="M678,437c3,0,9-6,12-35s-5-62-5-62s-7-23-21-51c-11.1-22.1-15.3-60.5-16-85.5"/>
	<path class="st1" d="M648,203.5c-0.2-6.6-0.2-12.3,0-16.5c1-20,3-47,3-47l6.9-67H530.9"/>
	<line class="st2" x1="531.5" y1="72.5" x2="524.5" y2="490"/>
</g>
<g id="Achterkant_laag" class="st0">
	<path class="st1" d="M657.9,73"/>
	<path class="st1" d="M647.9,200.1c-0.1-5.2,0-9.6,0.1-13.1c0.3-5.9,0.7-10.3,1.1-16.5l-0.1-2l-119.5,0v5l-5.7,316.2l3-0.8
		c5.6-2.7,12.8-5.2,19.3-7.9c37-15,103-36,103-36s26-8,29-8s9-6,12-35s-5-62-5-62s-7-23-21-51c-11.1-22.1-15.3-60.5-16-85.5
		L647.9,200.1"/>
	<path class="st1" d="M526.7,487.9"/>
</g>
<g id="Laag_18">
</g>
<g id="Laag_19">
</g>
<g id="Laag_13" class="st0">
	<g id="tlLjBd_1_" class="st3">
		
			<image style="overflow:visible;" width="1801" height="2600" id="tlLjBd_2_" xlink:href="BE3E10AAE29E7A5F.jpg"  transform="matrix(0.4747 0 0 0.4747 -164 -248)">
		</image>
	</g>
</g>
<g id="Hak">
	<path class="st4" d="M561.6,475.5V624h117.9l1-187.5C680.5,436.5,609.9,453.6,561.6,475.5z"/>
	<line class="st4" x1="561.6" y1="611.6" x2="680" y2="611.5"/>
</g>
<g id="Naad" class="st0">
	<line class="st5" x1="530.9" y1="73" x2="523.8" y2="491.7"/>
	<path class="st5" d="M538.9,484.1"/>
	<path class="st5" d="M546,65.4"/>
</g>
<g id="Zool">
	<path class="st6" d="M561.5,475.5c0,0-51,17-81,40s-50,39-61,48c0,0-34,31-53,41c-10.4,5.5-27,8-40,9c-11,0.8-51.2,1-69.6,0
		c-18.4-1-73.4-4-85.4-5s-45-6-55-8s-35-13-37-27"/>
</g>
<g id="front_hoog" class="st0">
	<g class="st3">
		<g>
			<line class="st7" x1="526.4" y1="80" x2="526.3" y2="84"/>
			<line class="st8" x1="526.2" y1="90.1" x2="519.4" y2="484.3"/>
			<line class="st7" x1="519.3" y1="487.3" x2="519.2" y2="491.3"/>
		</g>
	</g>
	<path class="st1" d="M522.4,492.4c6.7-3.9,14.4-7.7,23.6-11.4c37-15,103-36,103-36s26-8,29-8"/>
	<path class="st5" d="M561.5,475.5c0,0-51,17-81,40s-50,39-61,48c0,0-34,31-53,41c-10.4,5.5-27,8-40,9c-11,0.8-51.2,1-69.6,0
		c-18.4-1-73.4-4-85.4-5s-45-6-55-8s-35-13-37-27"/>
	<g class="st3">
		<g>
			<line class="st7" x1="526.4" y1="80" x2="526.3" y2="84"/>
			<line class="st8" x1="526.2" y1="90.1" x2="519.4" y2="484.3"/>
			<line class="st7" x1="519.3" y1="487.3" x2="519.2" y2="491.3"/>
		</g>
	</g>
	<g class="st3">
		<g>
			<line class="st7" x1="526.4" y1="78.3" x2="522.4" y2="78.3"/>
			<line class="st9" x1="516.4" y1="78.3" x2="365" y2="78"/>
			<line class="st7" x1="362" y1="78" x2="358" y2="78"/>
		</g>
	</g>
	<line class="st1" x1="358" y1="73" x2="530.4" y2="73"/>
	<path class="st1" d="M357.5,72.5v90c0,0-4,58-10,101s-3,42-27,112s-54,98-54,98s-15.5,18.5-43,34c0,0-6.5,4.5-51,22
		c-42.1,16.6-48,17-68,22S82,564,82,564s-19.5,29.5,32.5,41.5s71,11,108,14S282,622,282,622s69.5,5.5,102.5-18.5s66-58,89-75
		c17.2-12.8,28.3-24.9,48.4-36.6"/>
	<path class="st1" d="M530.4,72.5"/>
	<g class="st3">
		<g>
			<line class="st7" x1="519.2" y1="491.3" x2="519.3" y2="487.3"/>
			<line class="st8" x1="519.4" y1="481.2" x2="526.2" y2="87"/>
			<line class="st7" x1="526.3" y1="84" x2="526.4" y2="80"/>
		</g>
	</g>
	<line class="st2" x1="530.4" y1="72.5" x2="523.8" y2="490.7"/>
</g>
<g id="Front_laag" class="st0">
	<line class="st1" x1="354" y1="203.5" x2="528" y2="203"/>
	<path class="st1" d="M354.2,203.5c-1.7,18.7-4,40.8-6.7,60c-6,43-3,42-27,112s-54,98-54,98s-15.5,18.5-43,34c0,0-6.5,4.5-51,22
		c-42.1,16.6-48,17-68,22S82,564,82,564s-19.5,29.5,32.5,41.5s71,11,108,14S282,622,282,622s69.5,5.5,102.5-18.5s66-58,89-75
		c17.2-12.8,28.3-24.9,48.4-36.6"/>
	<line class="st2" x1="528.5" y1="203" x2="523.5" y2="491"/>
	<line class="st10" x1="523.5" y1="208" x2="518.9" y2="485.7"/>
	<path class="st10" d="M526,207.5"/>
	<line class="st10" x1="354" y1="207.5" x2="521.2" y2="207.5"/>
</g>
<g id="Laag_20" class="st0">
</g>
<g id="Laag_17" class="st0">
</g>
<g id="Hakversiering" class="st0">
	<path class="st11" d="M561.4,482.1c0,0,66-23.9,119.1-38.8"/>
</g>
<g id="Hielversiering" class="st0">
	<path class="st11" d="M542.5,483.5c0,0,10-179,121.5-194.5"/>
</g>
<g id="aantreklabel" class="st0">
	<polyline class="st5" points="553.5,483 561.5,27.5 531.5,27.5 530.9,73 	"/>
</g>
<g id="neusversiering" class="st0">
	<path class="st1" d="M327.5,357.5c0,0,114,12,107,194"/>
</g>
<g id="Gesp" class="st0">
	<line class="st1" x1="358" y1="73" x2="508" y2="73"/>
	<path class="st1" d="M685,340c0,0-7-23-21-51c-11.1-22.1-15.3-60.5-16-85.5"/>
	<polygon class="st12" points="639.7,204 636.4,251.4 654,251.1 654,203.5 	"/>
	<g class="st3">
		<g>
			<line class="st7" x1="526.4" y1="80" x2="526.3" y2="84"/>
			<line class="st8" x1="526.2" y1="90.1" x2="519.4" y2="484.3"/>
			<line class="st7" x1="519.3" y1="487.3" x2="519.2" y2="491.3"/>
		</g>
	</g>
	<g class="st3">
		<g>
			<path class="st7" d="M529.5,156.2c0.2,1.3,0.4,2.6,0.7,3.9"/>
			<path class="st13" d="M531.3,166c4.2,18.6,12.7,36.8,30,39.1c36.9,5,79.5,2.4,79.5,2.4h3.3"/>
			<polyline class="st7" points="647,207.5 651,207.5 651,211.5 			"/>
			<line class="st14" x1="651" y1="217.1" x2="651" y2="240.7"/>
			<polyline class="st7" points="651,243.5 651,247.5 647,247.5 			"/>
			<path class="st15" d="M641.1,247.6c-13.6,0.2-53.6,1.2-83.7,5.5c-12.3,1.7-20.2,11.4-25.2,23.8"/>
			<path class="st7" d="M531.2,279.5c-0.4,1.2-0.9,2.5-1.3,3.8"/>
		</g>
	</g>
	<path class="st1" d="M508,73h22.4v46.1c0,0-3,77,33.9,82c36.9,5,89.7,2.4,89.7,2.4v47.6c0,0-56.7,0.3-93.6,5.4
		c-36.9,5-33.9,82-33.9,82l-2.7,151.2"/>
</g>
<g id="band_voor" class="st0">
	<rect x="354" y="89.5" class="st11" width="304" height="48.2"/>
</g>
<g id="Gesp_dashed" class="st0">
	<path class="st1" d="M756.5,241.6"/>
	<g class="st3">
		<g>
			<path class="st7" d="M529.5,156.2c0.2,1.3,0.4,2.6,0.7,3.9"/>
			<path class="st13" d="M531.3,166c4.2,18.6,12.7,36.8,30,39.1c36.9,5,79.5,2.4,79.5,2.4h3.3"/>
			<polyline class="st7" points="647,207.5 651,207.5 651,211.5 			"/>
			<line class="st14" x1="651" y1="217.1" x2="651" y2="240.7"/>
			<polyline class="st7" points="651,243.5 651,247.5 647,247.5 			"/>
			<path class="st15" d="M641.1,247.6c-13.6,0.2-53.6,1.2-83.7,5.5c-12.3,1.7-20.2,11.4-25.2,23.8"/>
			<path class="st7" d="M531.2,279.5c-0.4,1.2-0.9,2.5-1.3,3.8"/>
		</g>
	</g>
</g>
<g id="verhoging" class="st0">
	<polyline class="st1" points="358,73 358,51 530.9,51 530.9,73 	"/>
</g>
</svg>
