<svg id="Achterkant_laag" data-name="Achterkant laag" xmlns="http://www.w3.org/2000/svg" viewBox="0 0 822 696"><defs><style>.cls-1,.cls-2{fill:none;stroke:#000;stroke-miterlimit:10;}.cls-2{stroke-width:0.5px;stroke-dasharray:8 6;}</style></defs><path class="cls-1" d="M651,135.5H533l-2.54.19L524.5,490l2.22-1.14c5.63-2.66,12.77-5.22,19.28-7.86,37-15,103-36,103-36s25-8,28-8h1c3,0,9-6,12-35s-5-62-5-62a364.47,364.47,0,0,0-21-51c-11.07-22.13-15.26-60.51-16-85.5l0-.72c-.18-6.32-.14-11.74.06-15.78.42-8.33,2.21-29.48,4.16-51.33Z"/><line class="cls-2" x1="534.76" y1="138.5" x2="649.06" y2="138.5"/></svg>